<?xml version="1.0" encoding="UTF-8"?>
<svg fill="none" viewBox="0 0 48 48" xmlns="http://www.w3.org/2000/svg">
<path d="M39.3 6H8.7C7.20883 6 6 7.20883 6 8.7V39.3C6 40.7912 7.20883 42 8.7 42H39.3C40.7912 42 42 40.7912 42 39.3V8.7C42 7.20883 40.7912 6 39.3 6Z" fill="#2F88FF" stroke="#000" stroke-linejoin="round" stroke-width="4"/>
<path d="m36 27-7 3" stroke="#fff" stroke-linecap="round" stroke-linejoin="round" stroke-width="4"/>
<path d="m21 33-7 3" stroke="#fff" stroke-linecap="round" stroke-linejoin="round" stroke-width="4"/>
<path d="m16 29c2-2.8954 3-4.8954 3-6 0-1.6569-1.3431-3-3-3s-3 1.3431-3 3c0 1.1046 1 3.1046 3 6z" fill="#43CCF8" stroke="#fff" stroke-linejoin="round" stroke-width="4"/>
<path d="m32 22c2-2.8954 3-4.8954 3-6 0-1.6569-1.3431-3-3-3s-3 1.3431-3 3c0 1.1046 1 3.1046 3 6z" fill="#43CCF8" stroke="#fff" stroke-linejoin="round" stroke-width="4"/>
</svg>
