<?xml version="1.0" encoding="UTF-8"?>
<svg viewBox="0 0 48 48" xmlns="http://www.w3.org/2000/svg">
<rect width="48" height="48" fill="#fff" fill-opacity=".01"/>
<path d="m13.5 32c1.3807 0 2.5-1.1193 2.5-2.5s-1.1193-2.5-2.5-2.5-2.5 1.1193-2.5 2.5 1.1193 2.5 2.5 2.5z" clip-rule="evenodd" fill-rule="evenodd"/>
<path d="m34.5 32c1.3807 0 2.5-1.1193 2.5-2.5s-1.1193-2.5-2.5-2.5-2.5 1.1193-2.5 2.5 1.1193 2.5 2.5 2.5z" clip-rule="evenodd" fill-rule="evenodd"/>
<path d="m7 37c-1.6568 0-3-1.3431-3-3v-9.2903c0-2.2734 1.2849-4.3516 3.3186-5.3675l0.68193-0.3407 2.31-9.9096c0.4221-1.8108 2.0362-3.0919 3.8955-3.0919h19.688c1.8732 0 3.4956 1.3 3.9038 3.1282l2.205 9.8733 0.6803 0.3401c2.0326 1.0164 3.3166 3.0939 3.3166 5.3665v9.2919c0 1.6569-1.3431 3-3 3h-1.9969v1c0 2.2091-1.7924 4-4.0015 4-2.2092 0-4.0016-1.7909-4.0016-4v-1h-14v1.0003c0 2.209-1.7907 3.9997-3.9997 3.9997s-3.9998-1.7907-3.9998-3.9997v-1.0003h-2.0005z" fill="#2F88FF" stroke="#000" stroke-linejoin="round" stroke-width="4"/>
<path d="M14 22H34L32.348 14.5661C32.1447 13.6511 31.3331 13 30.3957 13L17.6043 13C16.6669 13 15.8553 13.6511 15.652 14.5661L14 22Z" fill="#43CCF8" stroke="#fff" stroke-linejoin="round" stroke-width="4"/>
</svg>
