<?xml version="1.0" encoding="UTF-8"?>
<svg fill="none" viewBox="0 0 48 48" xmlns="http://www.w3.org/2000/svg">
<path d="m5.0037 42.231c0 0.4246 0.35435 0.7688 0.79149 0.7688l36.407 1e-4c0.4371 0 0.7915-0.3442 0.7915-0.7687v-0.9182c0.0182-0.2767 0.0552-1.6576-0.855-3.1842-0.574-0.9626-1.407-1.7942-2.476-2.4716-1.2932-0.8195-2.9383-1.4133-4.9281-1.7708-0.0147-0.0019-1.4901-0.1975-3.0016-0.5835-2.6321-0.6723-2.8622-1.2673-2.8637-1.2731-0.0155-0.0588-0.0379-0.1153-0.0666-0.1684-0.0215-0.111-0.0747-0.5287 0.027-1.6479 0.2582-2.8426 1.783-4.5226 3.0082-5.8724 0.3864-0.4257 0.7513-0.8278 1.0324-1.2221 1.2123-1.701 1.3248-3.6352 1.3299-3.7551 0-0.2429-0.0279-0.4426-0.0876-0.6277-0.119-0.3704-0.3429-0.6012-0.5064-0.7697l-0.0011-0.0012c-0.0412-0.0424-0.0801-0.0826-0.1119-0.1195-0.0121-0.0141-0.0443-0.0514-0.015-0.2429 0.1076-0.7049 0.1722-1.2951 0.2032-1.8574 0.0552-1.0018 0.0983-2.5-0.1601-3.9581-0.0319-0.249-0.0867-0.512-0.172-0.8253-0.273-1.0041-0.7116-1.8625-1.321-2.571-0.1048-0.11402-2.6528-2.7984-10.05-3.3492-1.0228-0.07615-2.0339-0.03513-3.0292 0.01574-0.2399 0.01186-0.5684 0.02814-0.8758 0.10779-0.7637 0.19783-0.9675 0.68189-1.021 0.9528-0.0887 0.44874 0.0672 0.79781 0.1703 1.0288v2e-5 3e-5c0.015 0.03349 0.0335 0.0749 0.0012 0.18274-0.1717 0.26591-0.4418 0.50564-0.7172 0.73276-0.0796 0.06765-1.9344 1.667-2.0364 3.7562-0.275 1.5889-0.2542 4.0645 0.071 5.7755 0.0189 0.0945 0.0468 0.2344 0.0015 0.3289-0.3497 0.3134-0.7461 0.6686-0.7451 1.4791 0.0042 0.0815 0.1167 2.0157 1.3291 3.7167 0.2808 0.394 0.6454 0.7958 1.0315 1.2212l9e-4 9e-4v1e-4c1.2252 1.3498 2.7499 3.0297 3.0082 5.8722 0.1016 1.1192 0.0484 1.537 0.0269 1.6479-0.0287 0.0531-0.0511 0.1096-0.0665 0.1684-0.0016 0.0058-0.2308 0.5989-2.851 1.2698-1.5116 0.3871-2.9997 0.5849-3.0441 0.5913-1.9337 0.3264-3.5687 0.9054-4.8596 1.7206-1.0654 0.6729-1.9 1.506-2.4806 2.4762-0.92772 1.5502-0.90264 2.962-0.88917 3.2197v0.9237z" fill="#2F88FF" stroke="#000" stroke-linejoin="round" stroke-width="4"/>
</svg>
