<?xml version="1.0" encoding="UTF-8"?>
<svg fill="none" viewBox="0 0 48 48" xmlns="http://www.w3.org/2000/svg">
<rect width="48" height="48" fill="#fff" fill-opacity=".01"/>
<path d="m14 18c3.866 0 7-3.134 7-7 0-3.866-3.134-7-7-7s-7 3.134-7 7c0 3.866 3.134 7 7 7z" fill="#2F88FF" stroke="#000" stroke-linejoin="round" stroke-width="4"/>
<path d="m34 18c3.866 0 7-3.134 7-7 0-3.866-3.134-7-7-7s-7 3.134-7 7c0 3.866 3.134 7 7 7z" fill="#2F88FF" stroke="#000" stroke-linejoin="round" stroke-width="4"/>
<path d="m4 44v-9c0-5.5228 3.7702-10 8.4211-10h5.0526c4.085 0 6.5264 4.0269 6.5264 4.0269" stroke="#000" stroke-linecap="round" stroke-linejoin="round" stroke-width="4"/>
<path d="m44 44v-9c0-5.5228-3.8151-10-8.5213-10h-5.1127c-3.9612 0-6.3738 4.0269-6.3661 4.0269" stroke="#000" stroke-linecap="round" stroke-linejoin="round" stroke-width="4"/>
<path d="m11 40h27" stroke="#000" stroke-linecap="round" stroke-linejoin="round" stroke-width="4"/>
<path d="m34.295 36.258 3.7187 3.7415-3.7187 3.8423" stroke="#000" stroke-linecap="round" stroke-linejoin="round" stroke-width="4"/>
<path d="m14.33 36.232-1.2592 1.2536-2.5184 2.5071 2.5184 2.5487 1.2592 1.2744" stroke="#000" stroke-linecap="round" stroke-linejoin="round" stroke-width="4"/>
</svg>
